# xmcd
#
# Track frame offsets: 
#        150
#        5044
#        34069
#        68477
#        99716
#        138950
#        155768
#        217282
#        229333
#        231168
#        252095
#        263278
#
# Disc length: 3984 seconds
#
# Revision: 5
# Processed by: cddbd v1.5.2PL0 Copyright (c) Steve Scherf et al.
# Submitted via: ExactAudioCopy v0.99pb5
#
DISCID=a30f8e0c
DTITLE=Black Sabbath - 1971-10-01
DYEAR=1971
DGENRE=Rock
TTITLE0=Intro
TTITLE1=NIB
TTITLE2=War Pigs
TTITLE3=Sweet Leaf 
TTITLE4=Iron Man 
TTITLE5=Wicked World
TTITLE6=Guitar Solo 
TTITLE7=Wicked World (Reprise) 
TTITLE8=Embryo
TTITLE9=Children Of The Grave
TTITLE10=Paranoid
TTITLE11=Fairies Wear Boots
EXTD=
EXTT0=
EXTT1=
EXTT2=
EXTT3=
EXTT4=
EXTT5=
EXTT6=
EXTT7=
EXTT8=
EXTT9=
EXTT10=
EXTT11=
PLAYORDER=
